<svg width="286" height="322" viewBox="0 0 286 322" xmlns="http://www.w3.org/2000/svg"><title>calendar</title><g fill="#FCCD0F" fill-rule="evenodd"><path d="M265.567 13.278v-1.66C265.567 5.212 260.355 0 253.949 0h-13.28c-6.405 0-11.618 5.212-11.618 11.618v1.66h-49.793v-1.66C179.258 5.212 174.045 0 167.639 0h-13.278c-6.406 0-11.618 5.212-11.618 11.618v1.66H92.949v-1.66C92.95 5.212 87.736 0 81.33 0H68.052c-6.407 0-11.619 5.212-11.619 11.618v1.66H0V322h322V13.278h-56.433zm-26.557-1.66c0-.899.76-1.66 1.66-1.66h13.278c.9 0 1.66.761 1.66 1.66v28.217H239.01V11.618zm-86.309 0c0-.899.76-1.66 1.66-1.66h13.278c.9 0 1.66.761 1.66 1.66v28.217H152.7V11.618h.001zm-86.31 0c0-.899.761-1.66 1.66-1.66H81.33c.899 0 1.66.761 1.66 1.66v28.217H66.39V11.618zm245.65 300.423H9.96V102.907H312.04v209.134zm0-219.092H9.96V76.35h267.226v-9.958H9.96V23.237h46.474v26.557h36.516V23.237h49.793v26.557h36.516V23.237h49.793v26.557h36.516V23.237h46.474v69.712z"/><path d="M23.237 116.185v182.578h275.526V116.185H23.237zm66.392 172.619H33.196v-29.876H89.63v29.876zm0-39.835H33.196v-36.516H89.63v36.516zm0-46.474H33.196v-33.197H89.63v33.197zm0-43.155H33.196v-33.196H89.63v33.196zm66.391 129.464H99.587v-29.876h56.433v29.876zm0-39.835H99.587v-36.516h56.433v36.516zm0-46.474H99.587v-33.197h56.433v33.197zm0-43.155H99.587v-33.196h56.433v33.196zm66.392 129.464H165.98v-29.876h56.433v29.876zm0-39.835H165.98v-36.516h56.433v36.516zm0-46.474H165.98v-33.197h56.433v33.197zm0-43.155H165.98v-33.196h56.433v33.196zm66.392 129.464H232.37v-29.876h56.433v29.876zm0-39.835H232.37v-36.516h56.433v36.516zm0-46.474H232.37v-33.197h56.433v33.197zm0-43.155H232.37v-33.196h56.433v33.196z"/></g></svg>