<svg width="296" height="387" viewBox="0 0 296 387" xmlns="http://www.w3.org/2000/svg"><title>Group 2</title><g fill="#FCCD0F" fill-rule="evenodd"><path d="M282.546 360.959h-23.21l-.002-41.121c0-41.227-22.783-79.128-64.15-106.72-5.235-3.494-8.487-11.01-8.487-19.617 0-8.606 3.252-16.122 8.484-19.614 41.37-27.596 64.153-65.496 64.156-106.724V26.041h23.209c7.242 0 13.115-5.831 13.115-13.021S289.787 0 282.546 0H13.454C6.212 0 .34 5.831.34 13.02c0 7.191 5.874 13.021 13.115 13.021h23.21v41.121c0 41.23 22.78 79.13 64.148 106.722 5.236 3.494 8.488 11.008 8.488 19.616s-3.252 16.122-8.486 19.615c-41.37 27.594-64.15 65.494-64.15 106.722v41.12h-23.21C6.212 360.958.34 366.79.34 373.98c0 7.191 5.874 13.02 13.115 13.02h269.092c7.242 0 13.115-5.83 13.115-13.02 0-7.19-5.874-13.02-13.115-13.02zM62.893 319.837c0-43.554 32.924-72.018 52.55-85.107 12.578-8.392 20.087-23.805 20.087-41.23 0-17.425-7.51-32.836-20.088-41.23-19.625-13.09-52.55-41.554-52.55-85.108v-41.12h170.215l-.002 41.12c0 43.553-32.926 72.017-52.555 85.11-12.575 8.393-20.082 23.805-20.082 41.228 0 17.423 7.507 32.834 20.085 41.23 19.626 13.092 52.552 41.557 52.554 85.107v41.12h-4.347c-10.782-40.236-65.807-83.968-72.683-89.305a13.19 13.19 0 0 0-16.156 0c-6.876 5.336-61.902 49.07-72.684 89.306h-4.346v-41.121h.002zM201.2 360.959H94.8c8.641-20.055 33.315-45.44 53.201-62.233 19.887 16.792 44.56 42.178 53.2 62.233z"/><path d="M147.996 248.897c3.45 0 6.833-1.393 9.272-3.815a13.018 13.018 0 0 0 3.843-9.205c0-3.423-1.392-6.783-3.843-9.206a13.268 13.268 0 0 0-9.272-3.814c-3.45 0-6.833 1.393-9.272 3.814a13.073 13.073 0 0 0-3.843 9.206c0 3.423 1.402 6.784 3.843 9.205a13.264 13.264 0 0 0 9.272 3.815zM148 179.843c7.244 0 13.115-5.83 13.115-13.02v-23.017c0-7.19-5.873-13.02-13.115-13.02s-13.115 5.83-13.115 13.02v23.017c0 7.19 5.871 13.02 13.115 13.02zM149.426 288.032s-30.019 15.87-43.511 31.007c-13.492 15.138-26.423 47.208-26.423 47.208l139.938 3.784s-4.43-28.47-24.665-46.752c-20.234-18.281-45.34-35.247-45.34-35.247z"/></g></svg>