<svg xmlns="http://www.w3.org/2000/svg" width="20" height="20" viewBox="0 0 20 20"><title>icon-twitter</title><path d="M19.449 3.977a7.871 7.871 0 0 1-2.266.62 3.958 3.958 0 0 0 1.733-2.182c-.774.46-1.62.784-2.504.958A3.944 3.944 0 0 0 9.693 6.97a11.199 11.199 0 0 1-8.13-4.12 3.923 3.923 0 0 0-.534 1.982c0 1.369.696 2.576 1.754 3.283a3.926 3.926 0 0 1-1.786-.494v.05a3.947 3.947 0 0 0 3.163 3.868c-.581.157-1.19.18-1.781.066a3.948 3.948 0 0 0 3.684 2.739 7.915 7.915 0 0 1-5.839 1.634 11.169 11.169 0 0 0 6.046 1.771c7.255 0 11.222-6.01 11.222-11.222 0-.17-.004-.341-.012-.51a7.957 7.957 0 0 0 1.969-2.04z"/></svg>