<?xml version="1.0" encoding="UTF-8" standalone="no"?>
<svg width="39px" height="39px" viewBox="0 0 39 39" version="1.1" xmlns="http://www.w3.org/2000/svg" xmlns:xlink="http://www.w3.org/1999/xlink">
    <!-- Generator: Sketch 39.1 (31720) - http://www.bohemiancoding.com/sketch -->
    <title>github</title>
    <desc>Created with Sketch.</desc>
    <defs></defs>
    <g id="Page-1" stroke="none" stroke-width="1" fill="none" fill-rule="evenodd">
        <circle id="gitgub-fill" fill="#FFFFFF" cx="19.5" cy="19.5" r="15.5"></circle>
        <g id="github" transform="translate(0.351351, 0.000000)" fill="#000000">
            <path d="M11.3002207,19.5150312 C11.2654369,19.5143929 11.6815541,20.3870759 11.6931486,20.3870759 C12.6013919,21.9932723 14.3521757,22.9917187 17.3055766,23.2687812 C16.8843063,23.580317 16.378009,24.1714687 16.3077973,24.8545491 C15.7776667,25.1884286 14.7116081,25.2988705 13.8832387,25.0441518 C12.7218468,24.6872902 12.2773874,22.4484464 10.5388423,22.7676429 C10.1626622,22.8359509 10.2373829,23.0779018 10.5626757,23.2834643 C11.0928063,23.6179821 11.5913739,24.0361295 11.9759279,24.9254107 C12.2715901,25.6084911 12.892545,26.8284598 14.8571847,26.8284598 C15.6365991,26.8284598 16.1828333,26.7371696 16.1828333,26.7371696 C16.1828333,26.7371696 16.1976486,28.4806205 16.1976486,29.1585937 C16.1976486,29.940625 15.1141982,30.1608705 15.1141982,30.5368839 C15.1141982,30.6856295 15.4729865,30.6996741 15.7609189,30.6996741 C16.3303423,30.6996741 17.5149234,30.2368393 17.5149234,29.4241652 C17.5149234,28.77875 17.5258739,26.6082143 17.5258739,26.2283705 C17.5258739,25.3984598 17.9825721,25.135442 17.9825721,25.135442 C17.9825721,25.135442 18.0392568,29.5658884 17.8737117,30.1608705 C17.6791802,30.8592723 17.3281216,30.7603214 17.3281216,31.0718571 C17.3281216,31.5353304 18.7542568,31.1861295 19.2270586,30.1678929 C19.5922883,29.3769241 19.4325405,25.0288304 19.4325405,25.0288304 L19.8222477,25.0211696 C19.8222477,25.0211696 19.8441486,27.0110402 19.8306216,27.92075 C19.8170946,28.8630179 19.7513919,30.0542589 20.3259685,30.6160446 C20.7034369,30.9856741 21.9260225,31.6336429 21.9260225,31.0412143 C21.9260225,30.6971205 21.2561126,30.4143125 21.2561126,29.4828973 L21.2561126,25.1960893 C21.7913964,25.1960893 21.7108784,26.6056607 21.7108784,26.6056607 L21.7501712,29.2249866 C21.7501712,29.2249866 21.6316486,30.1787455 22.8097883,30.5777411 C23.2252613,30.7201027 24.1141802,30.7577679 24.1560495,30.5202857 C24.1979189,30.2821652 23.085482,29.9278571 23.0751757,29.189875 C23.0687342,28.7385312 23.0957883,28.4755134 23.0957883,26.5169241 C23.0957883,24.5583348 22.8258919,23.8343973 21.8847973,23.2572902 C24.7885991,22.9668214 26.5864054,22.2671429 27.4617973,20.3934598 C27.5300766,20.395375 27.8192973,19.5182232 27.7812928,19.5182232 C27.9777568,18.8108839 28.0840405,17.9739509 28.1046532,16.9831652 C28.0995,14.2955312 26.7790045,13.3449643 26.5258559,12.8987277 C26.8994595,10.8641696 26.4627297,9.9385 26.2604685,9.62058036 C25.511973,9.36139286 23.657482,10.2877009 22.6435991,10.9395 C20.9920135,10.4690045 17.499464,10.5143304 16.1899189,11.0607946 C13.7737342,9.37607589 12.4951081,9.63398661 12.4951081,9.63398661 C12.4951081,9.63398661 11.6686712,11.0761161 12.2767432,13.1866429 C11.4818694,14.1735982 10.8892568,14.872 10.8892568,16.7227009 C10.8899009,17.7664732 11.0161532,18.6998036 11.3002207,19.5150312 L11.3002207,19.5150312 Z M19.3243243,38.3035714 C8.65214414,38.3035714 0,29.729317 0,19.1517857 C0,8.57425446 8.65214414,0 19.3243243,0 C29.9965045,0 38.6486486,8.57425446 38.6486486,19.1517857 C38.6486486,29.729317 29.9965045,38.3035714 19.3243243,38.3035714 L19.3243243,38.3035714 Z" id="Shape"></path>
        </g>
    </g>
</svg>
