<?xml version="1.0" encoding="utf-8"?>
<!-- Generator: Adobe Illustrator 16.0.0, SVG Export Plug-In . SVG Version: 6.00 Build 0)  -->
<!DOCTYPE svg PUBLIC "-//W3C//DTD SVG 1.1//EN" "http://www.w3.org/Graphics/SVG/1.1/DTD/svg11.dtd">
<svg version="1.1" id="Layer_1" xmlns="http://www.w3.org/2000/svg" xmlns:xlink="http://www.w3.org/1999/xlink" x="0px" y="0px"
	 width="82px" height="82px" viewBox="0 0 82 82" enable-background="new 0 0 82 82" xml:space="preserve">
<title>checked</title>
<desc>Created with Sketch.</desc>
<path fill="#FCD406" d="M58.97,23.173L30.892,54.206l-8.854-9.785c-0.948-1.051-2.57-1.129-3.618-0.182
	c-1.048,0.949-1.131,2.569-0.181,3.619l10.312,11.396c0.472,0.688,1.254,1.089,2.084,1.089c0.094,0,0.188-0.038,0.282-0.05
	c0.065,0.006,0.128,0.041,0.192,0.041c0.759,0,1.494-0.341,1.993-0.929l29.666-32.794c0.95-1.05,0.868-2.671-0.181-3.621
	C61.539,22.042,59.919,22.12,58.97,23.173z"/>
<path fill="#FCD406" d="M40.998,0C18.391,0,0,18.393,0,41s18.391,41,40.998,41C63.607,82,82,63.607,82,41S63.607,0,40.998,0z
	 M40.998,76.875C21.219,76.875,5.125,60.781,5.125,41S21.219,5.125,40.998,5.125c19.782,0,35.877,16.094,35.877,35.875
	S60.779,76.875,40.998,76.875z"/>
</svg>
