<svg xmlns="http://www.w3.org/2000/svg" width="55" height="55" viewBox="0 0 55 55"><defs><filter id="a" filterUnits="userSpaceOnUse" x=".438" y="1.187" width="54.3" height="52.626"><feColorMatrix values="1 0 0 0 0 0 1 0 0 0 0 0 1 0 0 0 0 0 1 0"/></filter></defs><mask maskUnits="userSpaceOnUse" x=".438" y="1.187" width="54.3" height="52.626" id="b"><path fill="#FFF" d="M54.737 53.813V1.188H.439v52.625h54.298z" filter="url(#a)"/></mask><path mask="url(#b)" d="M.439 28.169c0 11.916 7.777 22.029 18.568 25.597 1.357.248 1.853-.584 1.853-1.301 0-.641-.022-2.336-.037-4.588-7.551 1.633-9.146-3.615-9.146-3.615-1.234-3.119-3.014-3.947-3.014-3.947-2.466-1.676.187-1.639.187-1.639 2.726.189 4.157 2.777 4.157 2.777 2.423 4.125 6.354 2.936 7.902 2.242.247-1.744.947-2.932 1.723-3.607-6.027-.68-12.365-2.994-12.365-13.333 0-2.944 1.059-5.354 2.795-7.239-.28-.683-1.212-3.427.266-7.14 0 0 2.279-.726 7.465 2.767 2.166-.601 4.489-.897 6.797-.91 2.306.013 4.629.31 6.798.91 5.183-3.492 7.458-2.767 7.458-2.767 1.482 3.713.55 6.457.27 7.139 1.74 1.887 2.792 4.296 2.792 7.24 0 10.363-6.349 12.644-12.397 13.316.976.83 1.844 2.477 1.844 4.992 0 3.607-.033 6.52-.033 7.402 0 .721.488 1.562 1.867 1.297 10.777-3.574 18.551-13.68 18.551-25.593.001-14.903-12.156-26.982-27.15-26.982C12.596 1.187.438 13.266.439 28.169z"/></svg>