<?xml version='1.0' encoding='iso-8859-1'?>
<!DOCTYPE svg PUBLIC '-//W3C//DTD SVG 1.1//EN' 'http://www.w3.org/Graphics/SVG/1.1/DTD/svg11.dtd'>
<svg version="1.1" xmlns="http://www.w3.org/2000/svg" viewBox="0 0 187.852 187.852" xmlns:xlink="http://www.w3.org/1999/xlink" enable-background="new 0 0 187.852 187.852">
  <g>
    <path d="m185.975,75.172c-0.661-3.247-3.826-5.339-7.077-4.682-0.432,0.088-0.843,0.223-1.23,0.395-2.524,1.115-4.025,3.867-3.452,6.682 6.364,31.255-6.146,63.636-31.873,82.495-17.538,12.856-39.179,18.089-60.937,14.739-21.758-3.352-40.821-14.856-53.677-32.395-26.73-36.468-18.81-87.883 17.656-114.615 17.538-12.855 39.18-18.088 60.937-14.739 21.13,3.255 39.701,14.217 52.531,30.91l-5.516-.793c-3.283-0.474-6.322,1.805-6.793,5.085-0.472,3.28 1.805,6.321 5.085,6.793l19.915,2.864c0.132,0.019 0.262,0.018 0.394,0.028 0.156,0.012 0.313,0.034 0.468,0.034 2.936,0 5.501-2.157 5.932-5.147l2.864-19.915c0.472-3.28-1.805-6.321-5.085-6.793-3.281-0.473-6.321,1.805-6.793,5.085l-.811,5.639c-14.725-19.262-36.074-31.909-60.363-35.65-24.925-3.842-49.735,2.17-69.858,16.92-20.124,14.753-33.322,36.604-37.161,61.529-3.839,24.926 2.169,49.735 16.921,69.859 14.751,20.123 36.602,33.32 61.528,37.16 4.914,0.757 9.821,1.131 14.691,1.131 19.833,0 39.012-6.209 55.167-18.052 29.49-21.618 43.832-58.738 36.537-94.567z"/>
    <path d="m126.601,96.171h-20.48c-1.502-3.399-4.234-6.132-7.633-7.633v-46.034c0-3.313-2.687-6-6-6s-6,2.687-6,6v46.034c-5.236,2.314-8.904,7.55-8.904,13.633 0,8.218 6.686,14.904 14.904,14.904 6.083,0 11.319-3.668 13.633-8.904h20.48c3.313,0 6-2.687 6-6s-2.687-6-6-6zm-37.018,6c0-1.602 1.303-2.905 2.904-2.905s2.905,1.303 2.905,2.905-1.303,2.904-2.905,2.904-2.904-1.303-2.904-2.904z"/>
  </g>
</svg>
