<?xml version="1.0" encoding="utf-8"?>
<!-- Generator: Adobe Illustrator 16.0.0, SVG Export Plug-In . SVG Version: 6.00 Build 0)  -->
<!DOCTYPE svg PUBLIC "-//W3C//DTD SVG 1.1//EN" "http://www.w3.org/Graphics/SVG/1.1/DTD/svg11.dtd">
<svg version="1.1" id="Layer_1" xmlns="http://www.w3.org/2000/svg" xmlns:xlink="http://www.w3.org/1999/xlink" x="0px" y="0px"
	 width="20px" height="20px" viewBox="0 0 20 20" enable-background="new 0 0 20 20" xml:space="preserve">
<title>icon-twitter</title>
<path d="M19.449,3.977c-0.721,0.319-1.484,0.528-2.266,0.62c0.823-0.493,1.439-1.269,1.733-2.182
	c-0.774,0.46-1.62,0.784-2.504,0.958c-1.487-1.591-3.983-1.675-5.575-0.187C9.806,4.151,9.369,5.595,9.693,6.97
	c-3.171-0.158-6.126-1.656-8.13-4.12C1.212,3.452,1.028,4.136,1.029,4.832c0,1.369,0.696,2.576,1.754,3.283
	C2.157,8.095,1.544,7.926,0.997,7.621v0.05c0,1.877,1.323,3.495,3.163,3.868c-0.581,0.157-1.19,0.18-1.781,0.066
	c0.517,1.607,1.997,2.707,3.684,2.739c-1.652,1.298-3.753,1.886-5.839,1.634c1.803,1.158,3.902,1.773,6.046,1.771
	c7.255,0,11.222-6.01,11.222-11.222c0-0.17-0.004-0.341-0.012-0.51C18.254,5.46,18.92,4.769,19.449,3.977z"/>
</svg>
