<?xml version="1.0" encoding="UTF-8" standalone="no"?>
<svg width="82px" height="82px" viewBox="0 0 82 82" version="1.1" xmlns="http://www.w3.org/2000/svg" xmlns:xlink="http://www.w3.org/1999/xlink">
    <!-- Generator: Sketch 39.1 (31720) - http://www.bohemiancoding.com/sketch -->
    <title>question</title>
    <desc>Created with Sketch.</desc>
    <defs></defs>
    <g id="Page-1" stroke="none" stroke-width="1" fill="none" fill-rule="evenodd">
        <g id="index-01-alert" transform="translate(-1052.000000, -201.000000)" fill="#FCD406">
            <g id="question" transform="translate(1052.000000, 201.000000)">
                <path d="M41,0 C18.3923438,0 0,18.3923438 0,41 C0,63.6076562 18.3923438,82 41,82 C63.6076562,82 82,63.6076562 82,41 C82,18.3923438 63.6076563,0 41,0 L41,0 Z M41,76.875 C21.2187812,76.875 5.125,60.7812188 5.125,41 C5.125,21.2187812 21.2187812,5.125 41,5.125 C60.7812188,5.125 76.875,21.2187812 76.875,41 C76.875,60.7812188 60.7812188,76.875 41,76.875 L41,76.875 Z" id="Shape"></path>
                <path d="M41.6931563,13.3685625 C31.5712813,13.3685625 23.3379688,21.601875 23.3379688,31.7211875 C23.3379688,33.1356875 24.4846875,34.2836875 25.9004688,34.2836875 C27.31625,34.2836875 28.4629688,33.1356875 28.4629688,31.7211875 C28.4629688,24.4283125 34.399,18.4935625 41.6931563,18.4935625 C48.98475,18.4935625 54.9182188,24.4283125 54.9182188,31.7211875 C54.9182188,39.0140625 48.98475,44.9488125 41.6931563,44.9488125 C40.277375,44.9488125 39.1306563,46.0968125 39.1306563,47.5113125 L39.1306563,57.4166563 C39.1306563,58.8311562 40.277375,59.9791563 41.6931563,59.9791563 C43.1089375,59.9791563 44.2556563,58.8311562 44.2556563,57.4166563 L44.2556563,49.8944375 C53.1641875,48.6439375 60.0432188,40.9705313 60.0432188,31.7199062 C60.0432188,21.6005937 51.8111875,13.3685625 41.6931563,13.3685625 L41.6931563,13.3685625 Z" id="Shape"></path>
                <ellipse id="Oval" cx="41.6905938" cy="67.142625" rx="2.80465625" ry="2.80465625"></ellipse>
            </g>
        </g>
    </g>
</svg>