<?xml version="1.0" encoding="utf-8"?>
<!-- Generator: Adobe Illustrator 16.0.0, SVG Export Plug-In . SVG Version: 6.00 Build 0)  -->
<!DOCTYPE svg PUBLIC "-//W3C//DTD SVG 1.1//EN" "http://www.w3.org/Graphics/SVG/1.1/DTD/svg11.dtd">
<svg version="1.1" id="Layer_1" xmlns="http://www.w3.org/2000/svg" xmlns:xlink="http://www.w3.org/1999/xlink" x="0px" y="0px"
	 width="22px" height="22px" viewBox="0 0 22 22" xml:space="preserve">
<title>x</title>
<desc>Created with Sketch.</desc>
<g id="x" transform="translate(995.000000, 150.000000)">
	<path d="M-973.482-149.598c-0.534-0.535-1.392-0.535-1.926,0l-8.632,8.632l-8.632-8.632
		c-0.534-0.535-1.392-0.535-1.926,0c-0.535,0.534-0.535,1.392,0,1.926l8.632,8.632l-8.632,8.632c-0.535,0.534-0.535,1.392,0,1.926
		c0.262,0.262,0.615,0.403,0.958,0.403c0.343,0,0.696-0.131,0.958-0.403l8.632-8.632l8.632,8.632
		c0.262,0.262,0.615,0.403,0.957,0.403c0.354,0,0.696-0.131,0.959-0.403c0.533-0.534,0.533-1.392,0-1.926l-8.612-8.632l8.632-8.632
		C-972.947-148.207-972.947-149.064-973.482-149.598L-973.482-149.598z"/>
</g>
</svg>
